<?xml version="1.0" encoding="UTF-8" standalone="no"?>
<!-- Created with Inkscape (http://www.inkscape.org/) -->

<svg
   xmlns:dc="http://purl.org/dc/elements/1.1/"
   xmlns:cc="http://creativecommons.org/ns#"
   xmlns:rdf="http://www.w3.org/1999/02/22-rdf-syntax-ns#"
   xmlns:svg="http://www.w3.org/2000/svg"
   xmlns="http://www.w3.org/2000/svg"
   xmlns:sodipodi="http://sodipodi.sourceforge.net/DTD/sodipodi-0.dtd"
   xmlns:inkscape="http://www.inkscape.org/namespaces/inkscape"
   width="350"
   height="350"
   id="svg2"
   sodipodi:version="0.32"
   inkscape:version="0.92.4 (5da689c313, 2019-01-14)"
   version="1.0"
   sodipodi:docname="ThreadDirection_RightHandRule.svg"
   inkscape:output_extension="org.inkscape.output.svg.inkscape">
  <defs
     id="defs4">
    <marker
       inkscape:stockid="Arrow1Sstart"
       orient="auto"
       refY="0"
       refX="0"
       id="Arrow1Sstart"
       style="overflow: visible;">
      <path
         id="path3250"
         d="M 0,0 L 5,-5 L -12.5,0 L 5,5 L 0,0 z"
         style="fill-rule: evenodd; stroke: rgb(0, 0, 0); stroke-width: 1pt; marker-start: none;"
         transform="matrix(0.2, 0, 0, 0.2, 1.2, 0)" />
    </marker>
    <marker
       inkscape:stockid="Arrow1Lstart"
       orient="auto"
       refY="0"
       refX="0"
       id="Arrow1Lstart"
       style="overflow: visible;">
      <path
         id="path3238"
         d="M 0,0 L 5,-5 L -12.5,0 L 5,5 L 0,0 z"
         style="fill-rule: evenodd; stroke: rgb(0, 0, 0); stroke-width: 1pt; marker-start: none;"
         transform="matrix(0.8, 0, 0, 0.8, 10, 0)" />
    </marker>
    <inkscape:perspective
       sodipodi:type="inkscape:persp3d"
       inkscape:vp_x="0 : 526.18109 : 1"
       inkscape:vp_y="0 : 1000 : 0"
       inkscape:vp_z="744.09448 : 526.18109 : 1"
       inkscape:persp3d-origin="372.04724 : 350.78739 : 1"
       id="perspective10" />
    <inkscape:perspective
       id="perspective2447"
       inkscape:persp3d-origin="372.04724 : 350.78739 : 1"
       inkscape:vp_z="744.09448 : 526.18109 : 1"
       inkscape:vp_y="0 : 1000 : 0"
       inkscape:vp_x="0 : 526.18109 : 1"
       sodipodi:type="inkscape:persp3d" />
  </defs>
  <sodipodi:namedview
     id="base"
     pagecolor="#ffffff"
     bordercolor="#666666"
     borderopacity="1.0"
     gridtolerance="10000"
     guidetolerance="10"
     objecttolerance="10"
     inkscape:pageopacity="0.0"
     inkscape:pageshadow="2"
     inkscape:zoom="3.7299146"
     inkscape:cx="313.695"
     inkscape:cy="169.6892"
     inkscape:document-units="px"
     inkscape:current-layer="layer1"
     showgrid="false"
     inkscape:window-width="1280"
     inkscape:window-height="753"
     inkscape:window-x="-4"
     inkscape:window-y="-4"
     inkscape:object-paths="true"
     inkscape:object-nodes="true"
     inkscape:window-maximized="1"
     inkscape:pagecheckerboard="true" />
  <metadata
     id="metadata7">
    <rdf:RDF>
      <cc:Work
         rdf:about="">
        <dc:format>image/svg+xml</dc:format>
        <dc:type
           rdf:resource="http://purl.org/dc/dcmitype/StillImage" />
        <dc:title></dc:title>
      </cc:Work>
    </rdf:RDF>
  </metadata>
  <g
     inkscape:label="Layer 1"
     inkscape:groupmode="layer"
     id="layer1"
     transform="translate(-319.089, -547.474)">
    <path
       style="fill:#000000"
       d="m 392.02412,855.43225 c -1.08187,0.31756 -7.22433,-2.28192 -7.48423,-3.16733 l 36.4605,-78.39595 93.94479,-199.10346 -8.9058,-4.24466 c 8.29722,-6.25722 16.11971,-13.22086 24.84806,-18.87515 0.5392,0.10037 1.34539,28.88797 0.84608,30.21228 l -8.2855,-3.75672 -94.34645,199.22593 z"
       id="path2849"
       inkscape:connector-curvature="0"
       sodipodi:nodetypes="cccccccccc" />
    <g
       id="g3635"
       transform="translate(-14.798183,5.016382)">
      <path
         style="fill:#000000"
         d="M 328.62305 82.945312 C 324.22181 83.127056 321.0533 84.786197 312.72656 90.691406 C 296.83372 101.96238 294.26439 105.36732 291.41797 118.95117 C 287.31882 138.51325 284.78728 149.12857 283.66211 151.4707 C 281.62766 155.70557 278.58995 156.87197 273.26367 155.46289 C 268.36329 154.16647 249.48361 146.02345 249.20898 145.08789 C 228.03476 138.37605 202.29532 130.23818 192.72852 134.19531 C 187.25883 136.45775 186.23526 137.30731 183.50781 141.85156 C 181.58869 145.04901 180.33574 148.84614 180.16016 151.99219 L 179.87891 157.01953 L 173.55469 159.37891 C 164.46312 162.76933 160.32087 167.40098 159.68945 174.88672 C 159.42745 177.99244 159.30599 181.86888 159.41797 183.5 C 159.52997 185.1311 157.60089 190.55495 155.13086 195.55273 C 150.07389 205.78487 149.64819 210.95232 153.125 219.96289 C 154.21131 222.77822 154.76873 225.45084 154.36328 225.90234 C 153.95782 226.35386 153.24494 229.23866 152.7793 232.31445 C 151.61666 239.99415 154.34974 249.31562 160.15234 257.45898 C 165.82813 265.42436 169.28659 269.53633 170.61914 269.90234 C 171.22302 270.06821 172.98565 271.19918 174.53516 272.41797 L 185.45312 278.09375 L 192.32227 281.76172 C 197.61278 284.58786 199.87562 288.93924 207.60938 294.71289 C 216.71829 301.51315 222.12807 305.9097 237.50391 310.23828 C 255.01587 315.16823 266.4045 314.30217 268.65625 316.87305 C 273.46896 322.36784 282.64062 326.98438 282.64062 326.98438 C 284.62043 324.35539 284.57178 324.59329 285.02344 324.04102 C 285.47511 323.48876 286.23051 322.56146 287.00586 321.6582 C 287.19687 321.43567 277.41665 315.46039 275.07812 312.45117 C 269.6078 305.41187 259.68399 309.07241 240.47266 302.39648 C 228.41953 298.20801 221.96656 296.56888 212.73242 288.37305 L 203.81445 278.60156 L 206.80664 277.07812 C 208.45294 276.23987 210.80021 274.04784 212.02148 272.20703 C 214.31976 268.74292 216.16115 261.50692 215.40234 258.92188 C 215.05478 257.73782 216.25387 257.06551 221.44336 255.53906 C 232.77016 252.2074 236.70979 245.20537 233.11328 234.79883 L 231.11328 229.01172 L 237.22266 227.74023 C 244.91598 226.14031 246.74621 224.16539 248.1543 215.9375 C 248.99006 211.05403 248.83701 208.96865 247.38086 205.44336 C 246.3814 203.02369 245.08236 200.45137 244.49414 199.72852 C 243.78293 198.85456 244.06561 197.78408 245.33789 196.5332 C 246.39021 195.4986 247.61345 193.22064 248.05664 191.4707 C 249.20766 186.92591 246.07715 176.87112 241.79688 171.36719 C 240.80006 170.08541 240.07933 169.16281 239.61523 168.33398 L 239.60742 168.34961 L 229.39844 158.11719 C 227.97604 156.66649 226.58765 154.77935 226.3125 153.92383 C 226.03734 153.06831 224.77864 152.44416 223.51562 152.53516 C 222.25265 152.62615 220.29854 152.59878 219.17383 152.47461 C 215.3518 152.05264 219.87889 159.87062 229.25 169.87695 C 236.47773 177.59461 238.03332 179.80546 239.31445 184.16992 C 240.52451 188.29208 240.51475 189.64106 239.26562 190.86914 C 237.03665 193.06061 235.79775 193.25773 230.2793 192.28711 C 224.56262 191.28162 203.7133 180.18651 197.18555 174.67578 C 190.06652 167.15728 185.95365 158.64973 189.17969 148.28906 C 190.35858 144.88353 194.52455 141.52589 199.33789 140.10156 C 204.46833 138.5834 245.33368 149.89597 246.30664 152.90039 C 249.21793 154.79711 265.57341 161.82136 270.73047 163.37695 C 277.46554 165.40854 284.16008 163.72603 288.44922 158.92383 C 291.51074 155.49609 292.78728 151.28037 297.63672 128.57227 C 301.79621 109.09503 302.76419 107.59399 318.09766 96.835938 C 326.75845 90.759484 327.55956 90.439349 331.95703 91.292969 C 336.28093 92.132299 337.72614 96.451719 335.05664 100.55469 C 328.12151 111.21375 324.48375 119.28538 324.46875 124.04297 C 324.46006 126.80038 323.96107 131.70014 323.36133 134.93164 C 322.16935 141.35416 322.18301 148.58352 323.40039 156.30859 C 325.98584 172.71477 326.55261 181.13719 325.60742 189.125 C 323.81403 204.28107 326.02618 231.03827 330.26953 245.49414 C 331.35749 249.20047 334.76578 257.46731 337.8418 263.86328 C 342.23714 273.00251 343.98837 277.82996 346.02148 286.41016 L 348.60742 297.32812 L 356.14258 295.96289 C 356.3355 295.60964 355.36101 290.56437 353.97656 284.75 C 352.04098 276.62102 349.95173 270.88858 344.93555 259.93945 C 340.36934 249.97253 337.94791 243.49077 336.86328 238.33789 C 333.70793 223.34728 331.98339 200.25616 333.44141 192.51758 C 334.85351 185.02275 334.70052 176.04555 332.96484 164.44531 C 330.63056 148.84428 330.26729 142.53849 331.39453 137.28711 C 331.91981 134.84009 332.42365 130.38591 332.51562 127.38867 C 332.7308 120.38167 335.86798 112.26279 339.99219 108.03711 C 349.61016 98.182445 344.10016 83.457949 330.60352 82.949219 C 329.90584 82.922924 329.25179 82.919349 328.62305 82.945312 z M 178.41406 166.40234 C 180.62094 166.27375 182.07862 167.72668 183.8418 171.18945 C 187.17083 177.72748 192.9766 182.59937 206.72266 190.39258 C 215.77861 195.52677 222.86177 198.73905 227.87891 199.98633 C 233.47061 201.37646 236.03078 202.61197 237.77539 204.76367 C 240.39896 207.99939 241.22908 212.60812 239.89844 216.55078 C 238.85265 219.64944 235.85865 220.60607 228.51172 220.18945 C 219.9949 219.70649 214.09534 218.32665 201.10742 213.77539 C 184.30107 207.88608 181.6256 206.39652 174.80859 199.13281 C 168.87523 192.81066 168.85418 192.76937 168.00781 186.14648 C 166.45022 173.9582 167.53824 170.99245 174.8418 167.51758 C 176.25298 166.84617 177.41094 166.4608 178.41406 166.40234 z M 162.40625 197.99609 L 168.22656 204.23047 C 175.02916 211.51703 182.71408 216.13409 194.21875 219.8457 C 198.76557 221.31258 202.87644 222.86457 203.35352 223.29297 C 203.83059 223.72137 207.43307 224.80508 211.35938 225.70117 C 216.97712 226.98331 219.1767 228.07829 221.68164 230.8418 C 225.78621 235.37005 227.36278 240.64925 225.58398 243.90625 C 224.56267 245.77627 222.95018 246.76324 219.04297 247.91016 C 214.6208 249.20824 213.15444 249.14072 209.0918 247.44531 C 206.47113 246.35166 200.40139 244.11675 195.60352 242.48047 C 187.36293 239.67007 171.33872 230.74074 167.58594 226.86719 C 164.92788 222.71977 161.93117 218.9856 160.58398 214.19336 C 158.86138 208.3249 158.85687 207.15231 160.53516 202.82227 L 162.40625 197.99609 z M 161.40234 233.5957 C 162.50769 233.75809 164.7604 234.98252 167.85352 237.12305 C 176.49669 243.10441 184.62258 247.25783 194.25977 250.61914 C 205.91998 254.68606 209.37894 259.11925 206.30664 266.0625 C 203.60758 272.16227 194.75327 272.90757 184.04883 267.93359 C 175.56096 263.98959 172.97706 261.69947 166.64648 252.50977 C 162.45003 246.41806 159.26274 236.40529 160.68945 233.79297 C 160.79149 233.60614 161.0339 233.54157 161.40234 233.5957 z "
         transform="translate(333.88718,542.45762)"
         id="path2847" />
    </g>
    <path
       style="fill:none;stroke:#000000;stroke-width:9;stroke-linecap:round;stroke-linejoin:round;stroke-miterlimit:4;stroke-opacity:1;stroke-dashoffset:0;marker-start:url(#Arrow1Sstart)"
       d="m 362.61273,868.04327 c -23.91204,-14.30405 -38.06478,-32.11121 -33.02742,-43.63262 6.1891,-14.15572 39.01479,-13.48866 73.27162,1.48898 34.25683,14.97765 57.03642,38.62209 50.84732,52.7778 l -10e-6,4e-5 c -4.75651,10.8791 -25.24574,13.00326 -50.02621,6.60497"
       id="path3233" />
  </g>
</svg>
