<svg version="1.1" viewBox="0 0 96 96" xml:space="preserve" xmlns="http://www.w3.org/2000/svg">
    <g transform="matrix(1.0718 0 0 1.0718 -5.587 -5.5876)" stroke-width=".87008">
        <path d="m7.033 92.081h85.932c1.006 0 1.821-0.815 1.821-1.821v-42.157c0-1.006-0.815-1.821-1.821-1.821h-6.672l-1.351-36.609c-0.036-0.979-0.842-1.754-1.82-1.754h-10.576c-0.979 0-1.785 0.775-1.82 1.754l-1.354 36.608h-1.901l-1.352-36.608c-0.037-0.979-0.841-1.754-1.82-1.754h-10.576c-0.98 0-1.784 0.775-1.82 1.754l-1.352 36.608h-7.165v-10.122c0-0.456-0.17-0.896-0.478-1.231l-3.711-4.049c-0.347-0.376-0.832-0.591-1.345-0.591h-17.611c-0.547 0-1.064 0.246-1.412 0.669l-3.912 4.792c-0.266 0.325-0.412 0.732-0.412 1.152v9.38h-7.472c-1.006 0-1.82 0.815-1.82 1.821v42.158c0 1.006 0.814 1.821 1.82 1.821zm11.116-3.643v-26.636h21.593v26.636zm63.216-76.875 0.225 6.069h-7.513l0.225-6.069zm-7.422 9.712h7.78l0.925 25.006h-9.628zm-11.4-9.712 0.224 6.069h-7.512l0.224-6.069zm-7.422 9.712h7.779l0.925 25.006h-9.63zm-36.972 16.276 2.956-3.618h15.947l2.689 2.936v9.413h-21.592zm-9.293 12.374h82.286v38.513h-47.756v-28.459c0-1.007-0.814-1.822-1.82-1.822h-25.239c-1.005 0-1.822 0.815-1.822 1.822v28.458h-5.649z"/>
        <path d="m56.275 70.372h8.57c1.006 0 1.822-0.816 1.822-1.822v-8.57c0-1.007-0.816-1.822-1.822-1.822h-8.57c-1.007 0-1.821 0.815-1.821 1.822v8.57c0 1.006 0.815 1.822 1.821 1.822zm1.823-8.57h4.926v4.926h-4.926z"/>
        <path d="m71.999 70.372h8.568c1.008 0 1.823-0.816 1.823-1.822v-8.57c0-1.007-0.815-1.822-1.823-1.822h-8.568c-1.008 0-1.822 0.815-1.822 1.822v8.57c0 1.006 0.814 1.822 1.822 1.822zm1.821-8.57h4.926v4.926h-4.926z"/>
        <path d="m56.275 85.511h8.57c1.006 0 1.822-0.815 1.822-1.822v-8.569c0-1.007-0.816-1.822-1.822-1.822h-8.57c-1.007 0-1.821 0.815-1.821 1.822v8.569c0 1.006 0.815 1.822 1.821 1.822zm1.823-8.57h4.926v4.926h-4.926z"/>
        <path d="m71.999 85.511h8.568c1.008 0 1.823-0.815 1.823-1.822v-8.569c0-1.007-0.815-1.822-1.823-1.822h-8.568c-1.008 0-1.822 0.815-1.822 1.822v8.569c0 1.006 0.814 1.822 1.822 1.822zm1.821-8.57h4.926v4.926h-4.926z"/>
    </g>
</svg>
