<?xml version="1.0" encoding="UTF-8" standalone="no"?>
<svg
   viewBox="0 0 88 43"
   height="43"
   width="88"
   id="svg1098"
   version="1.1">
  <path
     id="path1653"
     d="m 71.000002,39.810093 v -3.5 h -35.5 H -1.2020658e-7 v -10.5 -10.5 H 35.500002 h 35.5 v -3.5 -3.5 h 6.92857 c 10.05809,0 10.07143,0.02368 10.07143,17.871429 0,10.122222 -0.3753,15.10387 -1.2,15.928571 -0.71416,0.714155 -4.15556,1.2 -8.5,1.2 h -7.3 z m 14.06574,1.464816 c 1.76442,-0.944291 1.93426,-2.21026 1.93426,-14.418212 0,-7.360666 -0.27315,-14.094833 -0.60699,-14.964816 -0.47226,-1.230693 -2.13697,-1.581788 -7.5,-1.581788 h -6.89301 v 16 16 h 5.56574 c 3.06116,0 6.43616,-0.465833 7.5,-1.035184 z M 4.3497799,32.560093 c -0.378578,-1.5125 -1.246913,-4.775 -1.929634,-7.25 l -1.241311,-4.5 -0.08942,7.25 c -0.08184,6.635662 0.08167,7.25 1.929635,7.25 1.702801,0 1.911237,-0.430741 1.330727,-2.75 z m 4.309558,1 c -0.261491,-0.9625 -1.240289,-5.0125 -2.175107,-9 -1.151664,-4.912464 -2.170294,-7.25 -3.159338,-7.25 -0.904613,0 -1.278878,0.665458 -0.984231,1.75 0.261491,0.9625 1.240289,5.0125 2.175107,9 1.151664,4.912464 2.170294,7.25 3.159338,7.25 0.904612,0 1.278878,-0.665458 0.984231,-1.75 z M 13,34.872146 c 0,-0.628891 -2.994247,-13.729327 -3.6140171,-15.812053 -0.286417,-0.9625 -1.213579,-1.75 -2.06036,-1.75 -0.84678,0 -1.327711,0.5625 -1.068734,1.25 0.258977,0.6875 1.289401,4.7375 2.289832,9 1.132083,4.823422 2.3163551,7.75 3.1361231,7.75 C 12.40728,35.310093 13,35.113017 13,34.872146 Z m 3.994423,-0.812053 c -0.0031,-0.6875 -0.42426,-2.825 -0.935984,-4.75 -0.511724,-1.925 -1.426559,-5.4125 -2.032967,-7.75 -0.606408,-2.3375 -1.692246,-4.25 -2.412974,-4.25 -1.028192,0 -0.875961,1.93831 0.706843,9 1.304034,5.817956 2.488093,9 3.348957,9 0.732436,0 1.329192,-0.5625 1.326125,-1.25 z m 3.923976,-0.5 c -0.04488,-0.9625 -0.837651,-4.894852 -1.761713,-8.738561 -1.157143,-4.813228 -2.193894,-7.087505 -3.330709,-7.306436 -1.50184,-0.289228 -1.474644,0.385662 0.301761,7.488561 1.073796,4.29354 2.145212,8.368936 2.380924,9.056436 0.646267,1.88496 2.502982,1.499708 2.409737,-0.5 z m 2.671802,-7.245868 c -1.256554,-5.407992 -2.588746,-8.997516 -3.340201,-9 -1.586028,-0.0052 -1.571082,0.448075 0.286312,8.683815 2.017595,8.946074 2.165861,9.312053 3.772504,9.312053 1.108856,0 0.971206,-1.723155 -0.718615,-8.995868 z m 4.760161,2.745868 c -0.80975,-3.4375 -1.72609,-7.4875 -2.03632,-9 -0.31022,-1.5125 -1.18279,-2.75 -1.939042,-2.75 -1.621453,0 -1.629681,0.161646 -0.305394,6 2.173866,9.5839 3.055796,12 4.380246,12 1.15308,0 1.13716,-1.000216 -0.0995,-6.25 z m 5.25806,4.5 c -0.28949,-0.9625 -1.25588,-5.0125 -2.14754,-9 -1.08109,-4.83467 -2.09421,-7.25 -3.04104,-7.25 -1.77928,0 -1.81694,-0.510915 0.70294,9.536188 1.43784,5.732825 2.58891,8.463812 3.56739,8.463812 0.90966,0 1.24969,-0.648034 0.91825,-1.75 z m 4.39158,1.213812 c 0,-0.294904 -0.95526,-4.344904 -2.12279,-9 -1.43783,-5.732825 -2.58891,-8.463812 -3.56739,-8.463812 -0.90965,0 -1.24969,0.648034 -0.91825,1.75 0.28949,0.9625 1.25589,5.0125 2.14754,9 1.0811,4.83467 2.09422,7.25 3.04104,7.25 0.78092,0 1.41985,-0.241285 1.41985,-0.536188 z m 3.97555,-0.213812 c -0.0313,-0.959379 -1.77154,-8.63889 -3.05926,-13.5 -0.61382,-2.31716 -1.59267,-3.75 -2.56182,-3.75 -0.86265,0 -1.35656,0.5625 -1.09758,1.25 0.25897,0.6875 1.2894,4.7375 2.28983,9 1.13208,4.823422 2.31635,7.75 3.13612,7.75 0.72444,0 1.30616,-0.3375 1.29271,-0.75 z m 3.98246,-0.5 c -0.14702,-4.376816 -3.85094,-16.288718 -5.14364,-16.542112 -1.26964,-0.248873 -1.18836,1.046317 0.54912,8.75 1.28568,5.700467 2.51926,9.042112 3.33793,9.042112 0.71422,0 1.27968,-0.5625 1.25659,-1.25 z m 25.04199,-7.75 v -9 h -13.5 c -10.14122,0 -13.49632,0.310999 -13.48522,1.25 0.0158,1.33486 2.72147,13.410727 3.47288,15.5 0.32432,0.901742 3.66228,1.25 11.98095,1.25 h 11.53139 z"
     style="fill:#000000;fill-opacity:1;stroke:none;stroke-opacity:1" />
  <path
     id="path1791-0"
     d="M 45.239324,13.863767 C 45.60801,0.59866211 27.088631,14.001586 23.118167,1.0465751 19.147703,14.001586 0.62832405,0.59866211 0.99700995,13.863767"
     style="fill:none;stroke-width:1;stroke-linecap:round;stroke-linejoin:round;stroke-miterlimit:4;stroke-dasharray:none;stroke-opacity:1" />
</svg>
