<svg version="1.1" viewBox="0 0 88 43" xmlns="http://www.w3.org/2000/svg">
	<defs>
		<marker id="a" style="overflow:visible" orient="auto">
			<path transform="scale(.6)" d="m8.7186 4.0337-10.926-4.0177 10.926-4.0177c-1.7455 2.3721-1.7354 5.6175-6e-7 8.0354z" style="fill-rule:evenodd;stroke-linejoin:round;stroke-width:.625"/>
		</marker>
		<marker id="b" style="overflow:visible" orient="auto">
			<path transform="scale(-.6)" d="m8.7186 4.0337-10.926-4.0177 10.926-4.0177c-1.7455 2.3721-1.7354 5.6175-6e-7 8.0354z" style="fill-rule:evenodd;stroke-linejoin:round;stroke-width:.625"/>
		</marker>
	</defs>
	<path d="m71 39.81v-3.5h-71v-21h71v-7h6.9286c10.058 0 10.071 0.02368 10.071 17.871 0 10.122-0.3753 15.104-1.2 15.929-0.71416 0.71416-4.1556 1.2-8.5 1.2h-7.3zm14.066 1.4648c1.7644-0.94429 1.9343-2.2103 1.9343-14.418 0-7.3607-0.27315-14.095-0.60699-14.965-0.47226-1.2307-2.137-1.5818-7.5-1.5818h-6.893v32h5.5657c3.0612 0 6.4362-0.46583 7.5-1.0352zm-80.716-8.7148c-0.37858-1.5125-1.2469-4.775-1.9296-7.25l-1.2413-4.5-0.08942 7.25c-0.08184 6.6357 0.08167 7.25 1.9296 7.25 1.7028 0 1.9112-0.43074 1.3307-2.75zm4.3096 1c-0.26149-0.9625-1.2403-5.0125-2.1751-9-1.1517-4.9125-2.1703-7.25-3.1593-7.25-0.90461 0-1.2789 0.66546-0.98423 1.75 0.26149 0.9625 1.2403 5.0125 2.1751 9 1.1517 4.9125 2.1703 7.25 3.1593 7.25 0.90461 0 1.2789-0.66546 0.98423-1.75zm4.3407 1.3121c0-0.62889-2.9942-13.729-3.614-15.812-0.28642-0.9625-1.2136-1.75-2.0604-1.75-0.84678 0-1.3277 0.5625-1.0687 1.25s1.2894 4.7375 2.2898 9c1.1321 4.8234 2.3164 7.75 3.1361 7.75 0.72444 0 1.3172-0.19708 1.3172-0.43795zm3.9944-0.81205c-0.0031-0.6875-0.42426-2.825-0.93598-4.75s-1.4266-5.4125-2.033-7.75-1.6922-4.25-2.413-4.25c-1.0282 0-0.87596 1.9383 0.70684 9 1.304 5.818 2.4881 9 3.349 9 0.73244 0 1.3292-0.5625 1.3261-1.25zm3.924-0.5c-0.04488-0.9625-0.83765-4.8949-1.7617-8.7386-1.1571-4.8132-2.1939-7.0875-3.3307-7.3064-1.5018-0.28923-1.4746 0.38566 0.30176 7.4886 1.0738 4.2935 2.1452 8.3689 2.3809 9.0564 0.64627 1.885 2.503 1.4997 2.4097-0.5zm2.6718-7.2459c-1.2566-5.408-2.5887-8.9975-3.3402-9-1.586-0.0052-1.5711 0.44808 0.28631 8.6838 2.0176 8.9461 2.1659 9.3121 3.7725 9.3121 1.1089 0 0.97121-1.7232-0.71862-8.9959zm4.7602 2.7459c-0.80975-3.4375-1.7261-7.4875-2.0363-9-0.31022-1.5125-1.1828-2.75-1.939-2.75-1.6215 0-1.6297 0.16165-0.30539 6 2.1739 9.5839 3.0558 12 4.3802 12 1.1531 0 1.1372-1.0002-0.0995-6.25zm5.2581 4.5c-0.28949-0.9625-1.2559-5.0125-2.1475-9-1.0811-4.8347-2.0942-7.25-3.041-7.25-1.7793 0-1.8169-0.51092 0.70294 9.5362 1.4378 5.7328 2.5889 8.4638 3.5674 8.4638 0.90966 0 1.2497-0.64803 0.91825-1.75zm4.3916 1.2138c0-0.2949-0.95526-4.3449-2.1228-9-1.4378-5.7328-2.5889-8.4638-3.5674-8.4638-0.90965 0-1.2497 0.64803-0.91825 1.75 0.28949 0.9625 1.2559 5.0125 2.1475 9 1.0811 4.8347 2.0942 7.25 3.041 7.25 0.78092 0 1.4198-0.24128 1.4198-0.53619zm3.9756-0.21381c-0.0313-0.95938-1.7715-8.6389-3.0593-13.5-0.61382-2.3172-1.5927-3.75-2.5618-3.75-0.86265 0-1.3566 0.5625-1.0976 1.25 0.25897 0.6875 1.2894 4.7375 2.2898 9 1.1321 4.8234 2.3164 7.75 3.1361 7.75 0.72444 0 1.3062-0.3375 1.2927-0.75zm3.9825-0.5c-0.14702-4.3768-3.8509-16.289-5.1436-16.542-1.2696-0.24887-1.1884 1.0463 0.54912 8.75 1.2857 5.7005 2.5193 9.0421 3.3379 9.0421 0.71422 0 1.2797-0.5625 1.2566-1.25zm25.042-7.75v-9h-13.5c-10.141 0-13.496 0.311-13.485 1.25 0.0158 1.3349 2.7215 13.411 3.4729 15.5 0.32432 0.90174 3.6623 1.25 11.981 1.25h11.531z"/>
	<g transform="translate(-4.3714 -.55849)">
		<path d="m7.7022 10.06h38.878" style="fill:none;marker-end:url(#b);marker-start:url(#a);stroke-width:1px"/>
		<path d="m49.2 6.6148v6.9103" style="fill:none;stroke-width:1px"/>
		<path d="m4.9967 6.6148v6.9103" style="fill:none;stroke-width:1px"/>
	</g>
</svg>
