<svg version="1.1" viewBox="0 0 49.63 159.88" xmlns="http://www.w3.org/2000/svg">
	<defs>
		<marker id="a" overflow="visible" orient="auto">
			<path transform="scale(.6) rotate(180) translate(0)" d="m8.7186 4.0337-10.926-4.0177 10.926-4.0177c-1.7455 2.3721-1.7354 5.6175-6e-7 8.0354z" fill-rule="evenodd" stroke-linejoin="round" stroke-width=".625"/>
		</marker>
		<marker id="b" overflow="visible" orient="auto">
			<path transform="scale(.6) rotate(180) translate(0)" d="m8.7186 4.0337-10.926-4.0177 10.926-4.0177c-1.7455 2.3721-1.7354 5.6175-6e-7 8.0354z" fill-rule="evenodd" stroke-linejoin="round" stroke-width=".625"/>
		</marker>
		<marker id="f" overflow="visible" orient="auto">
			<path transform="scale(.6) rotate(180) translate(0)" d="m8.7186 4.0337-10.926-4.0177 10.926-4.0177c-1.7455 2.3721-1.7354 5.6175-6e-7 8.0354z" fill-rule="evenodd" stroke-linejoin="round" stroke-width=".625"/>
		</marker>
		<marker id="e" overflow="visible" orient="auto">
			<path transform="scale(.6)" d="m8.7186 4.0337-10.926-4.0177 10.926-4.0177c-1.7455 2.3721-1.7354 5.6175-6e-7 8.0354z" fill-rule="evenodd" stroke-linejoin="round" stroke-width=".625"/>
		</marker>
		<marker id="d" overflow="visible" orient="auto">
			<path transform="scale(.6)" d="m8.7186 4.0337-10.926-4.0177 10.926-4.0177c-1.7455 2.3721-1.7354 5.6175-6e-7 8.0354z" fill-rule="evenodd" stroke-linejoin="round" stroke-width=".625"/>
		</marker>
		<marker id="c" overflow="visible" orient="auto">
			<path transform="scale(.6)" d="m8.7186 4.0337-10.926-4.0177 10.926-4.0177c-1.7455 2.3721-1.7354 5.6175-6e-7 8.0354z" fill-rule="evenodd" stroke-linejoin="round" stroke-width=".625"/>
		</marker>
	</defs>
	<g transform="rotate(-90 78.781 81.257)" fill="none">
		<g stroke-linecap="square">
			<path d="m28.857 17.259h18.791v28.684h-18.791v-4.9564h-27.647l-0.044633-18.793h27.692z" stroke-width="2"/>
			<g>
				<path d="m6.3348 22.427 4.4934 0.64047-4.158 18.201-4.0983-1.0362z"/>
				<path d="m14.818 22.322 4.4939 0.64066-4.1585 18.201-4.2964-0.83862z"/>
				<path d="m23.797 22.307 4.0983 1.0362-3.7628 17.806-4.2297-0.1161z"/>
			</g>
		</g>
		<path d="m28.857 22.193v18.793" stroke-width="2"/>
	</g>
	<g fill="none" stroke-width="1px">
		<path d="m18.869 158.5h-18.869"/>
		<path d="m3.0643 156.4v-22.211" marker-end="url(#f)" marker-start="url(#e)"/>
		<path d="m12.954 131.75h-12.954"/>
	</g>
	<g transform="rotate(-90 80.444 79.594)" fill="none">
		<g stroke-linecap="square">
			<path d="m99.51 9.8822v36.827l-11.373-9.0306h-27.647l-0.04463-18.298h27.493z" stroke-width="2"/>
			<g>
				<path d="m65.614 19.02 4.4934 0.64048-4.158 18.201-4.0983-1.0362z"/>
				<path d="m74.097 18.915 4.4939 0.64066-4.1585 18.201-4.2964-0.83862z"/>
				<path d="m83.076 18.9 4.0983 1.0362-3.7628 17.806-4.2297-0.11611z"/>
			</g>
		</g>
		<path d="m87.938 19.38 0.19861 18.298" stroke-width="2"/>
	</g>
	<g fill="none">
		<path d="m18.091 99.874h-18.091" stroke-width="1px"/>
		<path d="m3.0643 97.681v-35.268" marker-end="url(#b)" marker-start="url(#d)" stroke-width="1px"/>
		<path d="m7.983 59.981h-7.983" stroke-width="1px"/>
	</g>
	<g transform="matrix(0 -.98899 .98909 0 85.244 95.494)" fill="none" stroke-width="1.0111">
		<g stroke-linecap="square">
			<path d="m83.071-75.44c16.51-0.10486 16.756 37.165 0 37.388v-10.083h-27.893l-0.04513-18.5h27.939z" stroke-width="2.0222"/>
			<g stroke-width="1.0111">
				<path d="m60.359-66.999 4.5435 0.64754-4.2043 18.402-4.1439-1.0476z"/>
				<path d="m68.937-67.105 4.544 0.64773-4.2048 18.402-4.3442-0.84787z"/>
				<path d="m78.016-67.12 4.1439 1.0476-3.8047 18.002-4.2767-0.11739z"/>
			</g>
		</g>
		<path d="m82.931-66.634 0.20082 18.5" stroke-width="2.0222"/>
	</g>
	<g fill="none" stroke-width="1px">
		<path d="m16.327 41.617h-16.327"/>
		<path d="m3.0643 39.515v-23.131" marker-end="url(#a)" marker-start="url(#c)"/>
		<path d="m8.309 13.97-8.309-4.3e-4"/>
	</g>
</svg>
