<svg version="1.1" viewBox="0 0 41.028 168.29" xmlns="http://www.w3.org/2000/svg">
	<defs>
		<marker id="c" style="overflow:visible" orient="auto">
			<path transform="scale(.6)" d="m8.7186 4.0337-10.926-4.0177 10.926-4.0177c-1.7455 2.3721-1.7354 5.6175-6e-7 8.0354z" style="fill-rule:evenodd;stroke-linejoin:round;stroke-width:.625"/>
		</marker>
		<marker id="f" style="overflow:visible" orient="auto">
			<path transform="scale(-.6)" d="m8.7186 4.0337-10.926-4.0177 10.926-4.0177c-1.7455 2.3721-1.7354 5.6175-6e-7 8.0354z" style="fill-rule:evenodd;stroke-linejoin:round;stroke-width:.625"/>
		</marker>
		<marker id="a" style="overflow:visible" orient="auto">
			<path transform="scale(.6)" d="m8.7186 4.0337-10.926-4.0177 10.926-4.0177c-1.7455 2.3721-1.7354 5.6175-6e-7 8.0354z" style="fill-rule:evenodd;stroke-linejoin:round;stroke-width:.625"/>
		</marker>
		<marker id="d" style="overflow:visible" orient="auto">
			<path transform="scale(-.6)" d="m8.7186 4.0337-10.926-4.0177 10.926-4.0177c-1.7455 2.3721-1.7354 5.6175-6e-7 8.0354z" style="fill-rule:evenodd;stroke-linejoin:round;stroke-width:.625"/>
		</marker>
		<marker id="b" style="overflow:visible" orient="auto">
			<path transform="scale(.6)" d="m8.7186 4.0337-10.926-4.0177 10.926-4.0177c-1.7455 2.3721-1.7354 5.6175-6e-7 8.0354z" style="fill-rule:evenodd;stroke-linejoin:round;stroke-width:.625"/>
		</marker>
		<marker id="e" style="overflow:visible" orient="auto">
			<path transform="scale(-.6)" d="m8.7186 4.0337-10.926-4.0177 10.926-4.0177c-1.7455 2.3721-1.7354 5.6175-6e-7 8.0354z" style="fill-rule:evenodd;stroke-linejoin:round;stroke-width:.625"/>
		</marker>
	</defs>
	<g transform="rotate(-90 78.677 89.771)">
		<path d="m28.857 17.259h18.791v28.684h-18.791v-4.9564h-27.647l-0.044633-18.793h27.692z" style="fill:none;stroke-linecap:square;stroke-width:2"/>
		<path d="m6.3348 22.427 4.4934 0.64047-4.158 18.201-4.0983-1.0362z" style="fill:none;stroke-linecap:square"/>
		<path d="m14.818 22.322 4.4939 0.64066-4.1585 18.201-4.2964-0.83862z" style="fill:none;stroke-linecap:square"/>
		<path d="m23.797 22.307 4.0983 1.0362-3.7628 17.806-4.2297-0.1161z" style="fill:none;stroke-linecap:square"/>
		<path d="m28.857 22.193v18.793" style="fill:none;stroke-width:2"/>
	</g>
	<g transform="rotate(-90 78.424 86.191)">
		<path d="m99.51 9.8822v36.827l-11.373-9.0306v0h-27.647l-0.04463-18.298h27.493z" style="fill:none;stroke-linecap:square;stroke-width:2"/>
		<path d="m65.614 19.02 4.4934 0.64048-4.158 18.201-4.0983-1.0362z" style="fill:none;stroke-linecap:square"/>
		<path d="m74.097 18.915 4.4939 0.64066-4.1585 18.201-4.2964-0.83862z" style="fill:none;stroke-linecap:square"/>
		<path d="m83.076 18.9 4.0983 1.0362-3.7628 17.806-4.2297-0.11611z" style="fill:none;stroke-linecap:square"/>
		<path d="m87.938 19.38 0.19861 18.298" style="fill:none;stroke-width:2"/>
	</g>
	<g transform="matrix(0 -.98899 .98909 0 76.626 103.9)" style="stroke-width:1.0111">
		<path d="m83.071-75.44c16.51-0.10486 16.756 37.165 0 37.388v-10.083h-27.893l-0.04513-18.5h27.939z" style="fill:none;stroke-linecap:square;stroke-width:2.0222"/>
		<path d="m60.359-66.999 4.5435 0.64754-4.2043 18.402-4.1439-1.0476z" style="fill:none;stroke-linecap:square;stroke-width:1.0111"/>
		<path d="m68.937-67.105 4.544 0.64773-4.2048 18.402-4.3442-0.84787z" style="fill:none;stroke-linecap:square;stroke-width:1.0111"/>
		<path d="m78.016-67.12 4.1439 1.0476-3.8047 18.002-4.2767-0.11739z" style="fill:none;stroke-linecap:square;stroke-width:1.0111"/>
		<path d="m82.931-66.634 0.20082 18.5" style="fill:none;stroke-width:2.0222"/>
	</g>
	<path d="m3.3299 59.15h34.64" style="fill:none;marker-end:url(#f);marker-start:url(#c);stroke-width:1px"/>
	<path d="m40.528 55.695v6.9103" style="fill:none;stroke-width:1px"/>
	<path d="m0.62439 55.695v6.9103" style="fill:none;stroke-width:1px"/>
	<g transform="translate(-4.4423 -6.6148)">
		<path d="m7.7022 10.06h34.64" style="fill:none;marker-end:url(#d);marker-start:url(#a);stroke-width:1px"/>
		<path d="m44.9 6.6148v6.9103" style="fill:none;stroke-width:1px"/>
		<path d="m4.9967 6.6148v6.9103" style="fill:none;stroke-width:1px"/>
	</g>
	<path d="m8.3096 114.83h24.444" style="fill:none;marker-end:url(#e);marker-start:url(#b);stroke-width:1px"/>
	<path d="m35.307 111.38v6.91" style="fill:none;stroke-width:1px"/>
	<path d="m5.6041 111.38v6.91" style="fill:none;stroke-width:1px"/>
	<rect x="-4.3089" y="-7.6376" width="0" height="0" style="fill:none"/>
</svg>
