<?xml version="1.0" encoding="UTF-8"?>
<svg version="1.0" viewBox="0 0 350 350" xmlns="http://www.w3.org/2000/svg">
	<defs>
		<marker id="Arrow1Sstart" style="overflow:visible" orient="auto">
			<path transform="matrix(.2 0 0 .2 1.2 0)" d="m0 0 5-5-17.5 5 17.5 5-5-5z" style="stroke-width:1pt"/>
		</marker>
	</defs>
	<g transform="translate(-319.09 -547.47)">
		<path d="m392.02 855.43c-1.0819 0.31756-7.2243-2.2819-7.4842-3.1673l36.46-78.396 93.945-199.1-8.9058-4.2447c8.2972-6.2572 16.12-13.221 24.848-18.875 0.5392 0.10037 1.3454 28.888 0.84608 30.212l-8.2855-3.7567-94.346 199.23z"/>
		<g transform="translate(-14.798 5.0164)">
			<path transform="translate(333.89 542.46)" d="m328.62 82.945c-4.4012 0.18174-7.5698 1.8409-15.896 7.7461-15.893 11.271-18.462 14.676-21.309 28.26-4.0992 19.562-6.6307 30.177-7.7559 32.52-2.0344 4.2349-5.0722 5.4013-10.398 3.9922-4.9004-1.2964-23.78-9.4394-24.055-10.375-21.174-6.7118-46.914-14.85-56.48-10.893-5.4697 2.2624-6.4933 3.112-9.2207 7.6562-1.9191 3.1974-3.1721 6.9946-3.3476 10.141l-0.28125 5.0273-6.3242 2.3594c-9.0916 3.3904-13.234 8.0221-13.865 15.508-0.262 3.1057-0.38346 6.9822-0.27148 8.6133 0.112 1.6311-1.8171 7.055-4.2871 12.053-5.057 10.232-5.4827 15.4-2.0059 24.41 1.0863 2.8153 1.6437 5.488 1.2383 5.9394-0.40546 0.45152-1.1183 3.3363-1.584 6.4121-1.1626 7.6797 1.5704 17.001 7.373 25.145 5.6758 7.9654 9.1342 12.077 10.467 12.443 0.60388 0.16587 2.3665 1.2968 3.916 2.5156l10.918 5.6758 6.8692 3.668c5.2905 2.8261 7.5534 7.1775 15.287 12.951 9.1089 6.8003 14.519 11.197 29.895 15.525 17.512 4.93 28.901 4.0639 31.152 6.6348 4.8127 5.4948 13.984 10.111 13.984 10.111 1.9798-2.629 1.9312-2.3911 2.3828-2.9434 0.45167-0.55226 1.2071-1.4796 1.9824-2.3828 0.19101-0.22253-9.5892-6.1978-11.928-9.207-5.4703-7.0393-15.394-3.3788-34.605-10.055-12.053-4.1885-18.506-5.8276-27.74-14.023l-8.918-9.7715 2.9922-1.5234c1.6463-0.83825 3.9936-3.0303 5.2148-4.8711 2.2983-3.4641 4.1397-10.7 3.3809-13.285-0.34756-1.1841 0.85153-1.8564 6.041-3.3828 11.327-3.3317 15.266-10.334 11.67-20.74l-2-5.7871 6.1094-1.2715c7.6933-1.5999 9.5236-3.5748 10.932-11.803 0.83576-4.8835 0.68271-6.9688-0.77344-10.494-0.99946-2.4197-2.2985-4.992-2.8867-5.7148-0.71121-0.87396-0.42853-1.9444 0.84375-3.1953 1.0523-1.0346 2.2756-3.3126 2.7188-5.0625 1.151-4.5448-1.9795-14.6-6.2598-20.104-0.99682-1.2818-1.7176-2.2044-2.1816-3.0332l-0.00781 0.01563-10.209-10.232c-1.4224-1.4507-2.8108-3.3378-3.0859-4.1934-0.27516-0.85552-1.5339-1.4797-2.7969-1.3887-1.263 0.09099-3.2171 0.06362-4.3418-0.06055-3.822-0.42197 0.70506 7.396 10.076 17.402 7.2277 7.7177 8.7833 9.9285 10.064 14.293 1.2101 4.1222 1.2003 5.4711-0.04883 6.6992-2.229 2.1915-3.4679 2.3886-8.9863 1.418-5.7167-1.0055-26.566-12.101-33.094-17.611-7.119-7.5185-11.232-16.026-8.0059-26.387 1.1789-3.4055 5.3449-6.7632 10.158-8.1875 5.1304-1.5182 45.996 9.7944 46.969 12.799 2.9113 1.8967 19.267 8.921 24.424 10.477 6.7351 2.0316 13.43 0.34908 17.719-4.4531 3.0615-3.4277 4.3381-7.6435 9.1875-30.352 4.1595-19.477 5.1275-20.978 20.461-31.736 8.6608-6.0765 9.4619-6.3966 13.859-5.543 4.3239 0.83933 5.7691 5.1588 3.0996 9.2617-6.9351 10.659-10.573 18.731-10.588 23.488-0.00869 2.7574-0.50768 7.6572-1.1074 10.889-1.192 6.4225-1.1783 13.652 0.03906 21.377 2.5854 16.406 3.1522 24.829 2.207 32.816-1.7934 15.156 0.41876 41.913 4.6621 56.369 1.088 3.7063 4.4962 11.973 7.5723 18.369 4.3953 9.1392 6.1466 13.967 8.1797 22.547l2.5859 10.918 7.5352-1.3652c0.19292-0.35325-0.78157-5.3985-2.166-11.213-1.9356-8.129-4.0248-13.861-9.041-24.811-4.5662-9.9669-6.9876-16.449-8.0723-21.602-3.1554-14.991-4.8799-38.082-3.4219-45.82 1.4121-7.4948 1.2591-16.472-0.47657-28.072-2.3343-15.601-2.6976-21.907-1.5703-27.158 0.52528-2.447 1.0291-6.9012 1.1211-9.8984 0.21518-7.007 3.3524-15.126 7.4766-19.352 9.618-9.8547 4.108-24.579-9.3887-25.088-0.69768-0.026295-1.3517-0.02987-1.9805-0.003907zm-150.21 83.457c2.2069-0.12859 3.6646 1.3243 5.4277 4.7871 3.329 6.538 9.1348 11.41 22.881 19.203 9.056 5.1342 16.139 8.3465 21.156 9.5938 5.5917 1.3901 8.1519 2.6256 9.8965 4.7773 2.6236 3.2357 3.4537 7.8444 2.123 11.787-1.0458 3.0987-4.0398 4.0553-11.387 3.6387-8.5168-0.48296-14.416-1.8628-27.404-6.4141-16.806-5.8893-19.482-7.3789-26.299-14.643-5.9334-6.3222-5.9544-6.3634-6.8008-12.986-1.5576-12.188-0.46957-15.154 6.834-18.629 1.4112-0.67141 2.5691-1.0568 3.5723-1.1152zm-16.008 31.594 5.8203 6.2344c6.8026 7.2866 14.488 11.904 25.992 15.615 4.5468 1.4669 8.6577 3.0189 9.1348 3.4473 0.47707 0.4284 4.0796 1.5121 8.0059 2.4082 5.6177 1.2821 7.8173 2.3771 10.322 5.1406 4.1046 4.5282 5.6811 9.8074 3.9023 13.064-1.0213 1.87-2.6338 2.857-6.541 4.0039-4.4222 1.2981-5.8885 1.2306-9.9512-0.46485-2.6207-1.0936-8.6904-3.3286-13.488-4.9648-8.2406-2.8104-24.265-11.74-28.018-15.613-2.6581-4.1474-5.6548-7.8816-7.002-12.674-1.7226-5.8685-1.7271-7.041-0.04882-11.371l1.8711-4.8262zm-1.0039 35.6c1.1054 0.16239 3.3581 1.3868 6.4512 3.5274 8.6432 5.9814 16.769 10.135 26.406 13.496 11.66 4.0669 15.119 8.5001 12.047 15.443-2.6991 6.0998-11.553 6.8451-22.258 1.8711-8.4879-3.944-11.072-6.2341-17.402-15.424-4.1964-6.0917-7.3837-16.104-5.957-18.717 0.10204-0.18683 0.34445-0.2514 0.71289-0.19727z"/>
		</g>
		<path d="m362.61 868.04c-23.912-14.304-38.065-32.111-33.027-43.633 6.1891-14.156 39.015-13.489 73.272 1.489 34.257 14.978 57.036 38.622 50.847 52.778l-1e-5 4e-5c-4.7565 10.879-25.246 13.003-50.026 6.605" stroke-width="9" stroke="white" style="fill:none;marker-start:url(#Arrow1Sstart);stroke-linecap:round;stroke-linejoin:round;"/>
	</g>
</svg>
